<svg xmlns="http://www.w3.org/2000/svg" viewBox="0 0 512 512">
  <defs>
    <linearGradient id="bg" x1="0%" y1="0%" x2="100%" y2="100%">
      <stop offset="0%" style="stop-color:#1a1a2e"/>
      <stop offset="100%" style="stop-color:#0a0a0a"/>
    </linearGradient>
    <linearGradient id="accent" x1="0%" y1="0%" x2="100%" y2="100%">
      <stop offset="0%" style="stop-color:#00d4aa"/>
      <stop offset="100%" style="stop-color:#00a896"/>
    </linearGradient>
  </defs>

  <!-- Background -->
  <rect width="512" height="512" rx="96" fill="url(#bg)"/>

  <!-- R letter stylized -->
  <path d="M160 120 L160 392 L200 392 L200 280 L260 280 L320 392 L368 392 L300 268 C340 252 360 216 360 176 C360 124 320 120 280 120 Z M200 160 L270 160 C300 160 320 172 320 200 C320 228 300 240 270 240 L200 240 Z"
        fill="url(#accent)"/>

  <!-- Decorative dot -->
  <circle cx="400" cy="400" r="24" fill="url(#accent)" opacity="0.6"/>
</svg>
